<?xml version="1.0" standalone="no"?>
<!DOCTYPE svg PUBLIC "-//W3C//DTD SVG 20010904//EN"
 "http://www.w3.org/TR/2001/REC-SVG-20010904/DTD/svg10.dtd">
<svg version="1.0" xmlns="http://www.w3.org/2000/svg"
 width="512.000000pt" height="512.000000pt" viewBox="0 0 512.000000 512.000000"
 preserveAspectRatio="xMidYMid meet">
<metadata>
Created by potrace 1.11, written by Peter Selinger 2001-2013
</metadata>
<g transform="translate(0.000000,512.000000) scale(0.100000,-0.100000)"
fill="#000000" stroke="none">
<path d="M2378 5116 c-1 -2 -34 -6 -73 -9 -38 -4 -122 -15 -185 -27 -871 -151
-1611 -754 -1939 -1577 -60 -150 -111 -327 -136 -468 -31 -178 -38 -257 -39
-445 -1 -205 5 -292 29 -449 11 -69 55 -249 83 -341 252 -806 893 -1441 1705
-1686 l107 -32 39 66 c48 84 91 162 91 166 0 2 -30 11 -67 21 -851 220 -1500
899 -1682 1757 -12 54 -23 115 -25 135 -3 21 -8 67 -13 103 -14 117 -8 426 11
550 16 108 45 246 66 315 117 381 284 671 549 952 377 398 892 647 1456 703
88 8 448 6 463 -4 4 -3 32 -7 61 -11 46 -5 133 -21 220 -39 109 -24 309 -96
446 -160 314 -149 611 -387 819 -656 37 -47 70 -89 74 -95 4 -5 21 -30 37 -55
123 -188 233 -422 290 -620 34 -121 32 -110 62 -275 23 -122 26 -168 26 -360
0 -121 -3 -236 -6 -255 -4 -19 -10 -57 -12 -85 -3 -27 -13 -81 -21 -120 -9
-38 -18 -81 -20 -95 -9 -51 -68 -228 -109 -330 -77 -187 -178 -362 -307 -532
-76 -100 -250 -281 -341 -355 -40 -32 -74 -61 -77 -64 -14 -17 -206 -142 -285
-186 -159 -89 -369 -174 -527 -213 -46 -11 -89 -23 -96 -25 -9 -3 -6 -15 11
-42 13 -21 26 -42 28 -48 10 -26 71 -125 82 -134 26 -21 310 77 515 177 200
99 354 200 547 362 45 38 226 219 269 270 217 253 397 578 497 897 28 88 76
284 84 348 26 181 32 286 29 480 -1 105 -5 199 -7 210 -3 11 -8 45 -11 75 -32
257 -127 556 -256 810 -212 414 -530 760 -930 1014 -247 156 -621 301 -880
341 -19 3 -42 8 -50 10 -8 2 -39 7 -69 10 -30 4 -63 9 -75 12 -23 5 -452 13
-458 9z"/>
<path d="M2417 4644 c-1 -1 -29 -5 -62 -8 -139 -14 -170 -20 -316 -56 -319
-81 -630 -249 -881 -477 -63 -57 -174 -172 -201 -208 -4 -5 -17 -21 -28 -35
-71 -85 -173 -248 -242 -385 -144 -291 -211 -579 -211 -910 0 -108 9 -266 19
-308 2 -12 6 -35 9 -52 16 -108 80 -330 131 -450 55 -131 197 -380 250 -439 6
-6 26 -31 45 -56 115 -149 315 -332 475 -434 33 -21 72 -47 86 -57 71 -49 268
-138 419 -189 82 -28 260 -73 265 -68 2 2 58 98 124 215 l121 212 -241 488
c-132 268 -259 524 -280 569 l-40 81 -52 -14 c-192 -51 -444 59 -577 252 -67
98 -119 241 -161 448 -18 84 -19 316 -3 394 41 193 142 285 297 270 266 -26
681 -399 773 -696 8 -25 17 -89 21 -141 10 -164 -35 -296 -140 -407 l-49 -52
21 -30 c12 -16 21 -31 21 -34 0 -3 23 -42 50 -87 28 -45 50 -83 50 -86 0 -2
17 -33 39 -67 38 -62 146 -244 166 -282 25 -46 218 -371 225 -378 4 -5 36 42
71 105 35 62 69 120 74 129 6 9 20 34 32 56 12 21 79 140 150 264 71 123 132
231 136 239 4 8 23 42 43 75 61 105 60 97 21 148 -45 60 -68 129 -69 214 -1
75 2 96 27 169 19 58 12 46 228 384 280 437 407 624 407 597 0 -12 -49 -113
-129 -266 -95 -180 -134 -254 -300 -562 l-51 -96 25 -11 c14 -7 30 -12 35 -12
4 0 66 96 136 213 352 586 397 657 415 657 13 0 -48 -130 -300 -640 l-140
-285 22 -17 c12 -10 27 -18 32 -18 6 0 26 30 46 68 130 245 465 832 475 832 9
0 -4 -48 -26 -95 -10 -22 -32 -74 -50 -115 -46 -107 -306 -679 -324 -715 -15
-29 -15 -30 17 -46 17 -10 33 -16 33 -16 2 2 103 198 239 462 166 323 239 455
250 455 5 0 -24 -100 -33 -115 -4 -5 -7 -14 -8 -20 -5 -25 -340 -828 -371
-889 -79 -155 -228 -252 -377 -244 l-61 3 -49 -100 c-26 -55 -67 -140 -91
-190 -47 -99 -127 -265 -230 -480 -37 -77 -92 -191 -121 -253 l-54 -113 20
-29 c11 -15 20 -31 20 -35 0 -3 16 -31 35 -61 19 -30 35 -56 35 -58 0 -4 140
-238 145 -245 13 -13 294 67 425 121 195 79 450 236 576 353 135 126 196 190
254 265 19 24 41 51 49 60 31 32 146 220 192 310 96 192 143 333 194 580 28
137 39 449 21 578 -3 23 -9 61 -12 85 -17 133 -69 330 -122 463 -30 75 -116
247 -140 282 -12 16 -22 33 -22 36 0 20 -159 235 -226 306 -23 25 -53 57 -66
71 -40 45 -160 150 -238 208 -140 104 -286 188 -450 259 -104 44 -341 115
-425 126 -22 3 -51 7 -65 10 -71 13 -160 19 -298 21 -84 1 -153 0 -155 -1z"/>
<path d="M2498 583 c-37 -80 -43 -99 -31 -104 13 -4 151 -5 175 0 6 1 -88 201
-95 201 -2 0 -24 -44 -49 -97z"/>
<path d="M2289 145 c-32 -65 -57 -120 -56 -121 1 -1 38 -6 82 -10 155 -15 535
-8 553 11 2 2 -22 57 -55 122 l-58 118 -204 0 -204 0 -58 -120z"/>
</g>
</svg>
